# xmcd CD database file
#
# Track frame offsets:
#	180
#	17566
#	37034
#	69022
#	78635
#	102231
#	124345
#	149065
#	171609
#	191789
#	207289
#	221672
#	236448
#
# Disc length: 3398 seconds
#
# Revision: 0
# Processed by: cddbd v1.4PL0 Copyright (c) Steve Scherf et al.
# Submitted via: CDex 1.50beta10
#
DISCID=c50d440d
DTITLE=Tela Marinera - Bruce Dunlap
DYEAR=1998
DGENRE=New Age
TTITLE0=Wings Beat Time
TTITLE1=Tesuque
TTITLE2=Wing Fall
TTITLE3=Just One Feather
TTITLE4=Tecolote
TTITLE5=Heckle And Jeckle
TTITLE6=Crowtalk
TTITLE7=About Home
TTITLE8=Avian Ways
TTITLE9=Feathers and Bones
TTITLE10=The Mercy Of The Wind
TTITLE11=Enraptured
TTITLE12=Updraft
EXTD=YEAR: 1998
EXTT0=
EXTT1=
EXTT2=
EXTT3=
EXTT4=
EXTT5=
EXTT6=
EXTT7=
EXTT8=
EXTT9=
EXTT10=
EXTT11=
EXTT12=
PLAYORDER=
